<svg width="522" height="115" viewBox="0 0 522 115" fill="none" xmlns="http://www.w3.org/2000/svg">
<g clip-path="url(#paint0_diamond_24_2_clip_path)" data-figma-skip-parse="true"><g transform="matrix(0.261 0 0 0.0571325 261 57.1325)"><rect x="0" y="0" width="1003.83" height="1017.5" fill="url(#paint0_diamond_24_2)" opacity="1" shape-rendering="crispEdges"/><rect x="0" y="0" width="1003.83" height="1017.5" transform="scale(1 -1)" fill="url(#paint0_diamond_24_2)" opacity="1" shape-rendering="crispEdges"/><rect x="0" y="0" width="1003.83" height="1017.5" transform="scale(-1 1)" fill="url(#paint0_diamond_24_2)" opacity="1" shape-rendering="crispEdges"/><rect x="0" y="0" width="1003.83" height="1017.5" transform="scale(-1)" fill="url(#paint0_diamond_24_2)" opacity="1" shape-rendering="crispEdges"/></g></g><path d="M263.334 12.967C263.334 12.967 257.194 14.1932 254.493 16.818C251.691 19.5416 250.367 25.934 250.367 25.934C250.367 25.934 248.628 19.5343 245.691 16.818C243.07 14.3943 237.4 12.967 237.4 12.967C237.4 12.967 243.067 11.676 245.691 9.29937C248.704 6.57057 250.367 0 250.367 0C250.367 0 251.616 6.55925 254.493 9.29937C257.2 11.8773 263.334 12.967 263.334 12.967Z" data-figma-gradient-fill="{&#34;type&#34;:&#34;GRADIENT_DIAMOND&#34;,&#34;stops&#34;:[{&#34;color&#34;:{&#34;r&#34;:0.51372551918029785,&#34;g&#34;:0.51764708757400513,&#34;b&#34;:0.52941179275512695,&#34;a&#34;:1.0},&#34;position&#34;:0.0},{&#34;color&#34;:{&#34;r&#34;:0.70196080207824707,&#34;g&#34;:0.71372550725936890,&#34;b&#34;:0.70980393886566162,&#34;a&#34;:1.0},&#34;position&#34;:0.40000000596046448},{&#34;color&#34;:{&#34;r&#34;:0.70196080207824707,&#34;g&#34;:0.71372550725936890,&#34;b&#34;:0.70980393886566162,&#34;a&#34;:1.0},&#34;position&#34;:0.69999998807907104},{&#34;color&#34;:{&#34;r&#34;:0.34901961684226990,&#34;g&#34;:0.34901961684226990,&#34;b&#34;:0.34901961684226990,&#34;a&#34;:1.0},&#34;position&#34;:1.0}],&#34;stopsVar&#34;:[{&#34;color&#34;:{&#34;r&#34;:0.51372551918029785,&#34;g&#34;:0.51764708757400513,&#34;b&#34;:0.52941179275512695,&#34;a&#34;:1.0},&#34;position&#34;:0.0},{&#34;color&#34;:{&#34;r&#34;:0.70196080207824707,&#34;g&#34;:0.71372550725936890,&#34;b&#34;:0.70980393886566162,&#34;a&#34;:1.0},&#34;position&#34;:0.40000000596046448},{&#34;color&#34;:{&#34;r&#34;:0.70196080207824707,&#34;g&#34;:0.71372550725936890,&#34;b&#34;:0.70980393886566162,&#34;a&#34;:1.0},&#34;position&#34;:0.69999998807907104},{&#34;color&#34;:{&#34;r&#34;:0.34901961684226990,&#34;g&#34;:0.34901961684226990,&#34;b&#34;:0.34901961684226990,&#34;a&#34;:1.0},&#34;position&#34;:1.0}],&#34;transform&#34;:{&#34;m00&#34;:522.0,&#34;m01&#34;:0.0,&#34;m02&#34;:0.0,&#34;m10&#34;:0.0,&#34;m11&#34;:114.26490783691406,&#34;m12&#34;:0.0},&#34;opacity&#34;:1.0,&#34;blendMode&#34;:&#34;NORMAL&#34;,&#34;visible&#34;:true}"/>
<path d="M131.4 61.5C131.4 68.8 130.25 75.65 127.95 82.05C125.65 88.35 122.35 93.9 118.05 98.7C113.85 103.5 108.8 107.25 102.9 109.95C97 112.65 90.45 114 83.25 114H48.3C41 114 34.4 112.65 28.5 109.95C22.6 107.25 17.5 103.5 13.2 98.7C9 93.9 5.75 88.35 3.45 82.05C1.15 75.65 0 68.8 0 61.5C0 54.3 1.15 47.55 3.45 41.25C5.75 34.85 9 29.25 13.2 24.45C17.5 19.55 22.6 15.75 28.5 13.05C34.4 10.35 41 8.99999 48.3 8.99999H83.25C90.45 8.99999 97 10.35 102.9 13.05C108.8 15.75 113.85 19.55 118.05 24.45C122.35 29.25 125.65 34.85 127.95 41.25C130.25 47.55 131.4 54.3 131.4 61.5ZM116.4 61.5C116.4 54.6 115.05 48.3 112.35 42.6C109.75 36.9 105.95 32.4 100.95 29.1C96.05 25.7 90.15 24 83.25 24H48.3C41.4 24 35.45 25.7 30.45 29.1C25.55 32.4 21.75 36.9 19.05 42.6C16.35 48.3 15 54.6 15 61.5C15 68.4 16.35 74.7 19.05 80.4C21.75 86 25.55 90.5 30.45 93.9C35.45 97.3 41.4 99 48.3 99H83.25C90.15 99 96.05 97.3 100.95 93.9C105.95 90.5 109.75 86 112.35 80.4C115.05 74.7 116.4 68.4 116.4 61.5Z" fill="white"/>
<path d="M230.68 46.5H174.43C171.33 46.5 168.68 47.6 166.48 49.8C164.28 52 163.18 54.65 163.18 57.75V114H148.18V57.75C148.18 52.85 149.33 48.45 151.63 44.55C154.03 40.55 157.23 37.4 161.23 35.1C165.23 32.7 169.63 31.5 174.43 31.5H230.68V46.5Z" fill="white"/>
<path d="M257.823 114H242.823V31.5H257.823V114Z" fill="white"/>
<path d="M439.8 114H424.8V31.5H481.05C486.75 31.5 492.05 32.6 496.95 34.8C501.95 36.9 506.3 39.85 510 43.65C513.8 47.45 516.75 51.85 518.85 56.85C520.95 61.75 522 67.05 522 72.75V114H507V72.75C507 67.95 505.85 63.6 503.55 59.7C501.25 55.7 498.1 52.5 494.1 50.1C490.2 47.7 485.85 46.5 481.05 46.5H439.8V114Z" fill="white"/>
<path d="M394.745 71.25C394.745 76.95 393.695 82.3 391.595 87.3C389.495 92.2 386.545 96.55 382.745 100.35C379.045 104.15 374.695 107.15 369.695 109.35C364.795 111.45 359.495 112.5 353.795 112.5H330.695C324.995 112.5 319.645 111.45 314.645 109.35C309.745 107.15 305.395 104.15 301.595 100.35C297.895 96.55 294.995 92.2 292.895 87.3C290.795 82.3 289.745 76.95 289.745 71.25C289.745 65.55 290.795 60.25 292.895 55.35C294.995 50.35 297.895 45.95 301.595 42.15C305.395 38.35 309.745 35.4 314.645 33.3C319.645 31.1 324.995 30 330.695 30H353.795C359.495 30 364.795 31.1 369.695 33.3C374.695 35.4 379.045 38.35 382.745 42.15C386.545 45.95 389.495 50.35 391.595 55.35C393.695 60.25 394.745 65.55 394.745 71.25ZM379.745 71.25C379.745 66.45 378.595 62.1 376.295 58.2C373.995 54.2 370.845 51 366.845 48.6C362.945 46.2 358.595 45 353.795 45H330.695C325.895 45 321.545 46.2 317.645 48.6C313.745 51 310.595 54.2 308.195 58.2C305.895 62.1 304.745 66.45 304.745 71.25C304.745 76.05 305.895 80.45 308.195 84.45C310.595 88.35 313.745 91.5 317.645 93.9C321.545 96.3 325.895 97.5 330.695 97.5H353.795C358.595 97.5 362.945 96.3 366.845 93.9C370.845 91.5 373.995 88.35 376.295 84.45C378.595 80.45 379.745 76.05 379.745 71.25Z" fill="white"/>
<g clip-path="url(#paint1_diamond_24_2_clip_path)" data-figma-skip-parse="true"><g transform="matrix(0.261 0 0 0.0571325 261 57.1325)"><rect x="0" y="0" width="1003.83" height="1017.5" fill="url(#paint1_diamond_24_2)" opacity="1" shape-rendering="crispEdges"/><rect x="0" y="0" width="1003.83" height="1017.5" transform="scale(1 -1)" fill="url(#paint1_diamond_24_2)" opacity="1" shape-rendering="crispEdges"/><rect x="0" y="0" width="1003.83" height="1017.5" transform="scale(-1 1)" fill="url(#paint1_diamond_24_2)" opacity="1" shape-rendering="crispEdges"/><rect x="0" y="0" width="1003.83" height="1017.5" transform="scale(-1)" fill="url(#paint1_diamond_24_2)" opacity="1" shape-rendering="crispEdges"/></g></g><path d="M414.645 56.3519C408.776 62.5304 399.596 69.4804 388.097 76.4501C377.102 83.114 364.172 89.6581 350.704 95.3751C337.236 101.092 323.546 105.847 311.114 109.127C298.113 112.558 286.736 114.333 278.215 114.263C270.027 114.195 264.76 112.372 263.384 109.131C262.008 105.889 264.356 100.834 269.995 94.8976C275.497 89.1046 280.018 86.0301 290.525 79.5C290.695 80.3232 291.947 84.8131 292.174 85.4556C283.917 92.3563 283.307 95.7345 285.084 99.9202C285.767 101.531 287.163 102.758 289.231 103.594C292.668 104.982 297.962 105.288 304.933 104.469C316.983 103.054 333.075 98.3465 349.081 91.5522C365.087 84.7583 379.651 76.4536 389.04 68.7675C397.74 61.6471 401.376 55.6171 399.556 51.3294C397.78 47.1444 396.274 44.1353 385.574 45.2818C384.186 43.4463 382.963 42.3753 381.319 40.7574C393.315 37.7353 398.435 36.9203 406.425 36.9867C414.612 37.0545 419.88 38.8769 421.256 42.1188C422.632 45.3604 420.284 50.4151 414.645 56.3519Z" data-figma-gradient-fill="{&#34;type&#34;:&#34;GRADIENT_DIAMOND&#34;,&#34;stops&#34;:[{&#34;color&#34;:{&#34;r&#34;:0.51372551918029785,&#34;g&#34;:0.51764708757400513,&#34;b&#34;:0.52941179275512695,&#34;a&#34;:1.0},&#34;position&#34;:0.0},{&#34;color&#34;:{&#34;r&#34;:0.70196080207824707,&#34;g&#34;:0.71372550725936890,&#34;b&#34;:0.70980393886566162,&#34;a&#34;:1.0},&#34;position&#34;:0.40000000596046448},{&#34;color&#34;:{&#34;r&#34;:0.70196080207824707,&#34;g&#34;:0.71372550725936890,&#34;b&#34;:0.70980393886566162,&#34;a&#34;:1.0},&#34;position&#34;:0.69999998807907104},{&#34;color&#34;:{&#34;r&#34;:0.34901961684226990,&#34;g&#34;:0.34901961684226990,&#34;b&#34;:0.34901961684226990,&#34;a&#34;:1.0},&#34;position&#34;:1.0}],&#34;stopsVar&#34;:[{&#34;color&#34;:{&#34;r&#34;:0.51372551918029785,&#34;g&#34;:0.51764708757400513,&#34;b&#34;:0.52941179275512695,&#34;a&#34;:1.0},&#34;position&#34;:0.0},{&#34;color&#34;:{&#34;r&#34;:0.70196080207824707,&#34;g&#34;:0.71372550725936890,&#34;b&#34;:0.70980393886566162,&#34;a&#34;:1.0},&#34;position&#34;:0.40000000596046448},{&#34;color&#34;:{&#34;r&#34;:0.70196080207824707,&#34;g&#34;:0.71372550725936890,&#34;b&#34;:0.70980393886566162,&#34;a&#34;:1.0},&#34;position&#34;:0.69999998807907104},{&#34;color&#34;:{&#34;r&#34;:0.34901961684226990,&#34;g&#34;:0.34901961684226990,&#34;b&#34;:0.34901961684226990,&#34;a&#34;:1.0},&#34;position&#34;:1.0}],&#34;transform&#34;:{&#34;m00&#34;:522.0,&#34;m01&#34;:0.0,&#34;m02&#34;:0.0,&#34;m10&#34;:0.0,&#34;m11&#34;:114.26490783691406,&#34;m12&#34;:0.0},&#34;opacity&#34;:1.0,&#34;blendMode&#34;:&#34;NORMAL&#34;,&#34;visible&#34;:true}"/>
<defs>
<clipPath id="paint0_diamond_24_2_clip_path"><path d="M263.334 12.967C263.334 12.967 257.194 14.1932 254.493 16.818C251.691 19.5416 250.367 25.934 250.367 25.934C250.367 25.934 248.628 19.5343 245.691 16.818C243.07 14.3943 237.4 12.967 237.4 12.967C237.4 12.967 243.067 11.676 245.691 9.29937C248.704 6.57057 250.367 0 250.367 0C250.367 0 251.616 6.55925 254.493 9.29937C257.2 11.8773 263.334 12.967 263.334 12.967Z"/></clipPath><clipPath id="paint1_diamond_24_2_clip_path"><path d="M414.645 56.3519C408.776 62.5304 399.596 69.4804 388.097 76.4501C377.102 83.114 364.172 89.6581 350.704 95.3751C337.236 101.092 323.546 105.847 311.114 109.127C298.113 112.558 286.736 114.333 278.215 114.263C270.027 114.195 264.76 112.372 263.384 109.131C262.008 105.889 264.356 100.834 269.995 94.8976C275.497 89.1046 280.018 86.0301 290.525 79.5C290.695 80.3232 291.947 84.8131 292.174 85.4556C283.917 92.3563 283.307 95.7345 285.084 99.9202C285.767 101.531 287.163 102.758 289.231 103.594C292.668 104.982 297.962 105.288 304.933 104.469C316.983 103.054 333.075 98.3465 349.081 91.5522C365.087 84.7583 379.651 76.4536 389.04 68.7675C397.74 61.6471 401.376 55.6171 399.556 51.3294C397.78 47.1444 396.274 44.1353 385.574 45.2818C384.186 43.4463 382.963 42.3753 381.319 40.7574C393.315 37.7353 398.435 36.9203 406.425 36.9867C414.612 37.0545 419.88 38.8769 421.256 42.1188C422.632 45.3604 420.284 50.4151 414.645 56.3519Z"/></clipPath><linearGradient id="paint0_diamond_24_2" x1="0" y1="0" x2="500" y2="500" gradientUnits="userSpaceOnUse">
<stop stop-color="#838487"/>
<stop offset="0.4" stop-color="#B3B6B5"/>
<stop offset="0.7" stop-color="#B3B6B5"/>
<stop offset="1" stop-color="#595959"/>
</linearGradient>
<linearGradient id="paint1_diamond_24_2" x1="0" y1="0" x2="500" y2="500" gradientUnits="userSpaceOnUse">
<stop stop-color="#838487"/>
<stop offset="0.4" stop-color="#B3B6B5"/>
<stop offset="0.7" stop-color="#B3B6B5"/>
<stop offset="1" stop-color="#595959"/>
</linearGradient>
</defs>
</svg>
